<svg width="807" height="850" viewBox="0 0 807 850" fill="none" xmlns="http://www.w3.org/2000/svg">
<g filter="url(#filter0_i_3_18)">
<path d="M37.7574 441.661L42.1183 112H91.2781V190.678L100 390.52V543.156L91.2781 613.966V850H37.7574V780.763L33 756.373V543.156L37.7574 441.661Z" fill="#C43121"/>
</g>
<rect x="267.111" y="96" width="26.3983" height="187.261" fill="#825A2C" stroke="black" stroke-width="15"/>
<path d="M302.949 290.787L271.878 298.777C264.25 300.579 255.219 298.939 251.482 295.073C247.745 291.208 250.654 286.515 258.051 284.475L289.122 276.485C294.114 275.108 300.168 275.238 304.92 276.824C309.672 278.409 312.369 281.199 311.959 284.105C311.549 287.011 308.096 289.571 302.949 290.787V290.787Z" fill="#A0522D" stroke="black" stroke-width="15"/>
<path d="M302.949 326.579L271.878 334.569C264.25 336.371 255.219 334.731 251.482 330.866C247.745 327 250.654 322.307 258.051 320.267L289.122 312.277C294.114 310.901 300.168 311.03 304.92 312.616C309.672 314.201 312.369 316.991 311.959 319.897C311.549 322.803 308.096 325.363 302.949 326.579V326.579Z" fill="#A0522D" stroke="black" stroke-width="15"/>
<path d="M302.949 308.644L271.878 316.634C266.886 318.011 260.832 317.881 256.08 316.296C251.328 314.71 248.631 311.92 249.041 309.014C249.451 306.109 252.904 303.548 258.051 302.332L289.122 294.342C294.114 292.966 300.168 293.095 304.92 294.681C309.672 296.267 312.369 299.057 311.959 301.962C311.549 304.868 308.096 307.428 302.949 308.644V308.644Z" fill="#825A2C" stroke="black" stroke-width="15"/>
<g filter="url(#filter1_i_3_18)">
<path d="M272.028 82.1243L465 84.9882L465 117.272L418.945 117.272L301.964 123L212.616 123L171.166 117.272L33 117.272L33 82.1242L73.5288 82.1242L87.806 79L212.616 79L272.028 82.1243Z" fill="#C43121"/>
</g>
<path d="M59.7143 155.009C64.8954 159.106 63.3187 160.798 64.3904 166.174C64.5752 169.021 64.1875 175.372 61.1582 177.997C57.3716 181.279 57.8101 186.551 55.5091 192.676C53.2081 198.801 54.913 204.28 53.8784 210.611C52.8437 216.943 54.11 217.15 51.4986 225.174C48.8872 233.198 51.8461 234.982 54.8049 236.766C57.7638 238.549 61.4346 231.998 62.2624 226.933C63.0901 221.868 64.6545 216.273 67.8079 212.888C70.3307 210.18 71.2538 213.017 71.4 214.775L69.8479 224.272C69.3306 227.438 68.5029 232.503 69.9885 235.346C71.4741 238.189 71.383 242.725 70.3483 249.057C69.3136 255.388 68.2913 265.622 75.2561 266.76C82.2209 267.899 80.0774 257.147 82.3784 251.023C84.6794 244.898 83.9304 241.525 87.5888 231.072C91.2473 220.618 97.2562 219.65 99.8923 219.431C102.528 219.212 101.804 223.644 99.917 227.236C98.0299 230.828 97.2268 243.698 100.393 244.215C103.558 244.733 104.697 237.768 108.69 233.22C112.684 228.672 114.972 218.645 115.697 214.213C116.421 209.781 124.627 203.321 127.135 195.93C129.643 188.539 131.079 175.772 132.54 170.81C134.001 165.848 140.308 159.078 144.082 151.894C147.857 144.71 146.566 136.698 145.275 128.687L145.275 128.686C143.984 120.674 139.667 123.22 139.216 114.045C138.765 104.87 136.44 103.19 133.158 99.4033C129.876 95.6167 127.253 99.7382 124.385 93.4189C121.517 87.0997 116.233 83.6358 111.697 83.5447C107.161 83.4536 103.155 84.0991 99.3688 87.3807C95.5822 90.6623 88.6421 97.3293 85.3728 97.4449C67.955 98.0607 69.1793 113.001 69.2951 116.27C69.411 119.539 68.1694 127.137 64.1634 127.783C60.1575 128.428 56.2798 136.245 55.659 140.044C55.0382 143.843 54.5332 150.912 59.7143 155.009Z" fill="#B7B4B4"/>
<path d="M77.7408 152.104C77.2235 155.27 79.0195 156.213 81.5645 160.53C82.3135 163.903 80.8142 166.258 80.7491 169.497C80.658 174.033 84.5605 174.021 87.4159 176.438C90.2713 178.854 91.3307 180.328 96.396 181.155C101.461 181.983 99.2395 182.477 108.207 180.485C114.952 178.987 113.844 168.826 115.859 165.484C117.642 162.525 121.638 161.942 122.166 158.714C122.993 153.648 118.251 154.824 118.872 151.025C119.906 144.693 117.154 141.643 114.622 141.229C112.089 140.815 109.66 139.768 110.914 136.073C112.168 132.377 110.463 126.898 105.398 126.07C100.332 125.243 98.019 127.465 96.2354 130.424C94.3617 133.532 94.4517 133.383 93.5081 135.179C92.5646 136.975 89.3988 136.457 87.2923 137.413C85.1859 138.369 84.8755 140.269 84.4616 142.801C84.0478 145.334 83.5181 144.597 82.0448 145.657C80.5716 146.716 78.2582 148.938 77.7408 152.104Z" fill="#282828"/>
<path d="M79.3347 122.461C79.4258 117.926 83.1089 115.277 86.9079 115.898C91.0296 118.522 90.5123 121.687 89.9949 124.853L89.9949 124.853C89.4775 128.019 86.3241 131.404 82.6286 130.15C78.9331 128.896 79.2436 126.997 79.3347 122.461Z" fill="white"/>
<path d="M105.026 108.458C105.22 103.289 108.27 100.537 112.069 101.158C118.297 102.825 117.25 105.255 117.159 109.79C117.068 114.326 112.222 116.134 109.689 115.72C107.157 115.307 104.831 113.626 105.026 108.458Z" fill="white"/>
<path d="M124.301 133.71C123.126 128.967 127.016 125.053 130.286 124.937C135.247 126.398 134.304 128.194 134.949 132.2C135.595 136.206 132.868 140.96 129.702 140.443C126.536 139.926 125.477 138.452 124.301 133.71Z" fill="white"/>
<g filter="url(#filter2_d_3_18)">
<path d="M421.813 90.6214C417.774 93.4525 416.82 96.655 416.281 99.1583C415.626 98.9367 413.857 97.5889 413.32 96.9829C412.47 96.0248 407.81 91.9333 406.422 93.4784C405.034 95.0235 404.516 99.8833 406.959 106.918C409.403 113.953 414.747 116.094 419.097 116.724C423.447 117.354 420.609 113.375 419.76 112.417C419.223 111.811 417.357 110.095 413.961 106.262C410.564 102.43 411.103 99.9264 412.366 100.185C413.63 100.444 414.334 100.85 415.887 102.214C417.192 107.186 418.135 107.779 420.154 109.361C422.412 111.131 425.788 112.607 428.584 111.873C428.48 116.034 430.303 116.146 431.981 115.706C433.659 115.265 433.079 113.056 432.5 110.846C433.618 110.552 435.565 108.86 438.217 107.574C439.356 109.637 441.034 109.197 442.008 108.351C442.981 107.505 441.987 105.995 441.138 105.037C442.671 104.044 444.163 98.3382 443.438 95.576C442.859 93.3663 441.015 90.8975 440.166 89.9394C440.201 88.5526 440.606 85.6909 441.948 85.3387C443.626 84.8985 443.522 89.0589 443.957 90.7162C444.281 91.9516 445.386 93.8842 445.572 99.1496C445.757 104.415 446.462 104.821 446.876 104.122C447.29 103.422 451.269 93.5216 450.669 88.9554C450.068 84.3891 443.565 77.8291 441.038 77.3112C438.511 76.7933 439.256 81.9118 437.204 87.7642C433.103 83.526 425.712 87.8888 421.813 90.6214Z" fill="#514D4D"/>
</g>
<path d="M424.772 105.191C423.623 105.492 423.366 106.852 423.683 108.061C424.086 108.817 425.696 110.118 426.615 109.877C427.764 109.575 428.632 108.207 428.278 106.856C427.802 105.042 425.92 104.89 424.772 105.191Z" fill="white"/>
<path d="M437.861 96.5876C436.712 96.8889 435.881 98.3994 436.198 99.6085C436.832 102.027 438.14 102.33 439.862 101.878C441.585 101.426 441.11 99.6121 440.792 98.403C440.475 97.194 439.009 96.2862 437.861 96.5876Z" fill="white"/>
<path d="M388.955 96.1114C386.041 98.6678 375.447 103.836 366.356 105.624C369.087 111.478 370.033 116.607 369.582 117.918C368.904 119.888 366.988 123.974 361.398 125.441C355.808 126.907 355.9 122.702 357.577 122.262C359.254 121.822 358.282 122.674 362.195 121.648C365.326 120.827 365.797 117.916 365.641 116.563C364.111 117.561 360.573 119.565 358.667 119.587C356.285 119.615 353.462 117.966 355.405 116.262C357.348 114.558 358.347 116.087 358.906 115.941C359.465 115.794 359.905 117.471 362.965 115.473C366.026 113.475 364.028 110.416 362.443 106.651C346.791 110.757 341.091 102.696 338.828 100.901C332.091 95.5576 329.252 84.8973 329.463 78.8691C329.463 78.8691 325.768 76.9001 322.846 76.424C317.229 75.5087 314.021 76.9475 310.667 77.8274C307.313 78.7074 298.663 82.1718 289.92 89.8409C281.177 97.51 283.625 90.8953 285.008 89.3377C286.392 87.7802 289.838 82.6951 300.725 78.6442C311.611 74.5934 303.199 74.4113 298.727 75.5846C294.255 76.7579 287.309 82.164 282.452 86.4249C277.595 90.6857 264.591 93.4998 274.424 83.1553C284.257 72.8108 295.36 67.5056 305.06 65.5612C314.709 63.6268 325.205 70.2305 330.673 74.3707C333.843 69.756 343.004 59.4286 354.279 55.037C368.374 49.5474 377.666 53.0823 383.43 54.5563C384.334 51.93 386.997 45.3781 390.413 40.1812C394.683 33.6852 402.867 26.1626 410.134 24.256C417.401 22.3494 422.313 22.8526 427.811 25.591C433.31 28.3295 429.983 31.5914 426.482 31.9125C422.982 32.2337 419.6 30.7317 408.42 33.6649C399.476 36.0115 395.432 41.851 394.527 44.4774C396.657 42.7242 403.492 39.0196 413.799 38.2266C426.684 37.2353 423.825 44.5557 422.148 44.9956C420.471 45.4356 406.028 45.0438 401.703 46.7759C397.377 48.508 392.081 51.0922 389.221 58.4125C402.445 74.6536 397.377 84.9425 394.224 91.1452C391.072 97.3478 394.426 96.4679 397.89 105.116C401.353 113.763 396.35 117.465 393.848 119.316C391.346 121.167 387.378 117.43 392.263 115.551C396.17 114.048 395.797 110.045 395.122 108.231C395.091 109.633 394.389 112.724 391.823 113.875C388.615 115.314 382.971 112.016 388.973 109.844C394.975 107.672 390.421 101.7 388.955 96.1114Z" fill="#D3D0D0"/>
<path d="M355.26 91.4215C357.796 91.9411 362.219 93.5476 364.576 94.9053C365.99 95.7197 365.621 97.9902 365.033 98.9348C364.445 99.8794 362.246 102.037 352.681 102.176C343.116 102.314 345.444 95.1825 347.4 93.4837C349.355 91.7852 353.445 91.0495 355.26 91.4215Z" fill="#282828"/>
<path d="M383.27 76.959C380.775 81.1705 380.67 85.3474 381.543 88.675C381.834 89.7843 383.103 90.0447 384.787 89.6026C386.472 89.1604 387.678 87.6585 388.281 86.9074C389.024 85.9814 391.034 83.2211 392.565 78.0771C394.479 71.6472 390.383 69.758 388.698 70.1999C387.014 70.6418 385.766 72.7475 383.27 76.959Z" fill="#282828"/>
<path d="M408 437.4C408 472.557 408 503.619 377.195 522.051C370.095 526.188 362.496 529.399 354.581 531.608C330.221 537.782 305.12 540.539 280 539.8C254.88 540.539 229.779 537.782 205.419 531.608C197.504 529.399 189.905 526.188 182.805 522.051C152 503.619 152 472.557 152 437.4C152 390.125 192.021 350.36 246.379 338.584C257.428 336.208 268.698 335.007 280 335C286.017 334.994 292.028 335.336 298.005 336.024C360.128 343.021 408 385.688 408 437.4Z" fill="#FFE0B2"/>
<path d="M298.005 336.024C292.028 335.336 286.016 334.994 280 335C275.947 335 272.004 335.35 268.053 335.649C269.504 335.777 270.972 335.853 272.414 336.024C334.528 343.021 382.4 385.688 382.4 437.4C382.4 472.557 382.4 503.619 351.595 522.051C344.495 526.188 336.896 529.399 328.981 531.608C308.81 536.887 288.05 539.582 267.2 539.629C271.33 539.732 275.571 539.8 280 539.8C305.12 540.539 330.221 537.782 354.581 531.608C362.496 529.399 370.095 526.188 377.195 522.051C408 503.619 408 472.557 408 437.4C408 385.688 360.128 343.021 298.005 336.024Z" fill="#DFC49C"/>
<path d="M408 437.4C408 472.557 408 503.619 377.195 522.051C370.095 526.188 362.496 529.399 354.581 531.608C330.221 537.782 305.12 540.539 280 539.8C254.88 540.539 229.779 537.782 205.419 531.608C197.504 529.399 189.905 526.188 182.805 522.051C152 503.619 152 472.557 152 437.4C152 390.125 192.021 350.36 246.379 338.584C257.428 336.208 268.698 335.007 280 335C286.017 334.994 292.028 335.336 298.005 336.024C360.128 343.021 408 385.688 408 437.4Z" stroke="black" stroke-width="15"/>
<path d="M224.533 497.133C236.315 497.133 245.867 487.582 245.867 475.8C245.867 464.018 236.315 454.467 224.533 454.467C212.751 454.467 203.2 464.018 203.2 475.8C203.2 487.582 212.751 497.133 224.533 497.133Z" fill="#3F51B5"/>
<path d="M335.467 497.133C347.249 497.133 356.8 487.582 356.8 475.8C356.8 464.018 347.249 454.467 335.467 454.467C323.685 454.467 314.133 464.018 314.133 475.8C314.133 487.582 323.685 497.133 335.467 497.133Z" fill="#3F51B5"/>
<path d="M194.667 497.133C194.667 501.846 198.487 505.667 203.2 505.667H245.867C250.579 505.667 254.4 501.846 254.4 497.133C254.365 494.317 252.915 491.706 250.543 490.187C253.037 485.8 254.365 480.847 254.4 475.8C254.4 459.305 241.028 445.933 224.533 445.933C208.038 445.933 194.667 459.305 194.667 475.8C194.702 480.847 196.03 485.8 198.524 490.187C196.151 491.706 194.702 494.317 194.667 497.133ZM224.533 463C231.603 463 237.333 468.731 237.333 475.8C237.333 482.869 231.603 488.6 224.533 488.6C217.464 488.6 211.733 482.869 211.733 475.8C211.733 468.731 217.464 463 224.533 463Z" fill="black"/>
<path d="M305.6 497.133C305.6 501.846 309.421 505.667 314.133 505.667H356.8C361.513 505.667 365.333 501.846 365.333 497.133C365.298 494.317 363.849 491.706 361.476 490.187C363.97 485.8 365.298 480.847 365.333 475.8C365.333 459.305 351.962 445.933 335.467 445.933C318.972 445.933 305.6 459.305 305.6 475.8C305.635 480.847 306.963 485.8 309.457 490.187C307.085 491.706 305.635 494.317 305.6 497.133ZM335.467 463C342.536 463 348.267 468.731 348.267 475.8C348.267 482.869 342.536 488.6 335.467 488.6C328.398 488.6 322.667 482.869 322.667 475.8C322.667 468.731 328.398 463 335.467 463Z" fill="black"/>
<defs>
<filter id="filter0_i_3_18" x="33" y="112" width="67" height="742" filterUnits="userSpaceOnUse" color-interpolation-filters="sRGB">
<feFlood flood-opacity="0" result="BackgroundImageFix"/>
<feBlend mode="normal" in="SourceGraphic" in2="BackgroundImageFix" result="shape"/>
<feColorMatrix in="SourceAlpha" type="matrix" values="0 0 0 0 0 0 0 0 0 0 0 0 0 0 0 0 0 0 127 0" result="hardAlpha"/>
<feOffset dy="4"/>
<feGaussianBlur stdDeviation="2"/>
<feComposite in2="hardAlpha" operator="arithmetic" k2="-1" k3="1"/>
<feColorMatrix type="matrix" values="0 0 0 0 0 0 0 0 0 0 0 0 0 0 0 0 0 0 0.25 0"/>
<feBlend mode="normal" in2="shape" result="effect1_innerShadow_3_18"/>
</filter>
<filter id="filter1_i_3_18" x="33" y="79" width="432" height="48" filterUnits="userSpaceOnUse" color-interpolation-filters="sRGB">
<feFlood flood-opacity="0" result="BackgroundImageFix"/>
<feBlend mode="normal" in="SourceGraphic" in2="BackgroundImageFix" result="shape"/>
<feColorMatrix in="SourceAlpha" type="matrix" values="0 0 0 0 0 0 0 0 0 0 0 0 0 0 0 0 0 0 127 0" result="hardAlpha"/>
<feOffset dy="4"/>
<feGaussianBlur stdDeviation="2"/>
<feComposite in2="hardAlpha" operator="arithmetic" k2="-1" k3="1"/>
<feColorMatrix type="matrix" values="0 0 0 0 0 0 0 0 0 0 0 0 0 0 0 0 0 0 0.25 0"/>
<feBlend mode="normal" in2="shape" result="effect1_innerShadow_3_18"/>
</filter>
<filter id="filter2_d_3_18" x="401.254" y="77.275" width="53.4763" height="47.5163" filterUnits="userSpaceOnUse" color-interpolation-filters="sRGB">
<feFlood flood-opacity="0" result="BackgroundImageFix"/>
<feColorMatrix in="SourceAlpha" type="matrix" values="0 0 0 0 0 0 0 0 0 0 0 0 0 0 0 0 0 0 127 0" result="hardAlpha"/>
<feOffset dy="4"/>
<feGaussianBlur stdDeviation="2"/>
<feComposite in2="hardAlpha" operator="out"/>
<feColorMatrix type="matrix" values="0 0 0 0 0 0 0 0 0 0 0 0 0 0 0 0 0 0 0.25 0"/>
<feBlend mode="normal" in2="BackgroundImageFix" result="effect1_dropShadow_3_18"/>
<feBlend mode="normal" in="SourceGraphic" in2="effect1_dropShadow_3_18" result="shape"/>
</filter>
</defs>
</svg>
