<svg width="807" height="850" viewBox="0 0 807 850" fill="none" xmlns="http://www.w3.org/2000/svg">
<g clip-path="url(#clip0_3_306)">
<g filter="url(#filter0_i_3_306)">
<path d="M37.7574 441.661L42.1183 112H91.2781V190.678L100 390.52V543.156L91.2781 613.966V850H37.7574V780.763L33 756.373V543.156L37.7574 441.661Z" fill="#C43121"/>
</g>
<rect x="267.111" y="96" width="26.3983" height="187.261" fill="#825A2C" stroke="black" stroke-width="15"/>
<path d="M302.949 290.787L271.878 298.777C264.25 300.579 255.219 298.939 251.482 295.073C247.745 291.208 250.654 286.515 258.051 284.475L289.122 276.485C294.114 275.108 300.168 275.238 304.92 276.824C309.672 278.409 312.369 281.199 311.959 284.105C311.549 287.011 308.096 289.571 302.949 290.787V290.787Z" fill="#A0522D" stroke="black" stroke-width="15"/>
<path d="M302.949 326.579L271.878 334.569C264.25 336.371 255.219 334.731 251.482 330.866C247.745 327 250.654 322.307 258.051 320.267L289.122 312.277C294.114 310.901 300.168 311.03 304.92 312.616C309.672 314.201 312.369 316.991 311.959 319.897C311.549 322.803 308.096 325.363 302.949 326.579V326.579Z" fill="#A0522D" stroke="black" stroke-width="15"/>
<path d="M302.949 308.644L271.878 316.634C266.886 318.011 260.832 317.881 256.08 316.296C251.328 314.71 248.631 311.92 249.041 309.014C249.451 306.109 252.904 303.548 258.051 302.332L289.122 294.342C294.114 292.966 300.168 293.095 304.92 294.681C309.672 296.267 312.369 299.057 311.959 301.962C311.549 304.868 308.096 307.428 302.949 308.644V308.644Z" fill="#825A2C" stroke="black" stroke-width="15"/>
<g filter="url(#filter1_i_3_306)">
<path d="M272.028 82.1243L465 84.9882L465 117.272L418.945 117.272L301.964 123L212.616 123L171.166 117.272L33 117.272L33 82.1242L73.5288 82.1242L87.806 79L212.616 79L272.028 82.1243Z" fill="#C43121"/>
</g>
<g filter="url(#filter2_d_3_306)">
<path d="M461.754 244.268C451.271 251.615 448.796 259.926 447.398 266.423C445.696 265.848 441.106 262.35 439.712 260.777C437.508 258.291 425.414 247.673 421.812 251.683C418.21 255.692 416.864 268.304 423.206 286.561C429.547 304.818 443.415 310.373 454.704 312.009C465.993 313.644 458.63 303.317 456.426 300.83C455.032 299.258 450.19 294.805 441.375 284.859C432.56 274.913 433.959 268.416 437.238 269.088C440.517 269.76 442.344 270.813 446.376 274.353C449.762 287.255 452.207 288.794 457.448 292.901C463.307 297.493 472.069 301.323 479.326 299.419C479.056 310.217 483.787 310.508 488.141 309.365C492.496 308.223 490.991 302.488 489.486 296.754C492.389 295.992 497.443 291.601 504.324 288.264C507.28 293.617 511.635 292.475 514.162 290.28C516.688 288.084 514.109 284.164 511.905 281.678C515.883 279.102 519.755 264.295 517.875 257.126C516.37 251.392 511.586 244.985 509.383 242.499C509.473 238.899 510.524 231.473 514.007 230.559C518.362 229.417 518.093 240.213 519.22 244.514C520.061 247.72 522.928 252.736 523.411 266.4C523.893 280.065 525.72 281.118 526.796 279.303C527.871 277.489 538.195 251.795 536.638 239.945C535.08 228.095 518.202 211.071 511.644 209.726C505.086 208.382 507.02 221.666 501.696 236.854C491.053 225.855 471.872 237.177 461.754 244.268Z" fill="#514D4D"/>
</g>
<path d="M469.432 282.078C466.451 282.86 465.784 286.389 466.607 289.527C467.653 291.488 471.831 294.864 474.215 294.238C477.196 293.456 479.451 289.907 478.53 286.399C477.296 281.692 472.413 281.296 469.432 282.078Z" fill="white"/>
<path d="M503.4 259.751C500.419 260.534 498.261 264.453 499.084 267.591C500.731 273.867 504.123 274.653 508.595 273.48C513.066 272.307 511.831 267.601 511.008 264.463C510.185 261.325 506.38 258.969 503.4 259.751Z" fill="white"/>
<path d="M376.482 258.516C368.919 265.15 341.427 278.563 317.836 283.202C324.921 298.393 327.378 311.704 326.206 315.107C324.446 320.219 319.475 330.823 304.968 334.629C290.461 338.435 290.699 327.523 295.051 326.381C299.403 325.239 296.882 327.451 307.037 324.786C315.161 322.655 316.384 315.101 315.979 311.59C312.008 314.182 302.828 319.38 297.881 319.438C291.698 319.51 284.373 315.232 289.415 310.809C294.457 306.387 297.049 310.356 298.5 309.976C299.95 309.595 301.092 313.946 309.035 308.762C316.978 303.577 311.794 295.637 307.68 285.867C267.061 296.524 252.269 275.604 246.395 270.945C228.913 257.079 221.544 229.414 222.091 213.77C222.091 213.77 212.503 208.66 204.92 207.424C190.342 205.049 182.019 208.783 173.315 211.066C164.61 213.35 142.16 222.34 119.472 242.243C96.7839 262.145 103.135 244.979 106.725 240.937C110.316 236.895 119.258 223.698 147.511 213.186C175.764 202.673 153.933 202.201 142.327 205.246C130.721 208.291 112.695 222.32 100.091 233.378C87.4865 244.435 53.7399 251.738 79.2582 224.893C104.776 198.047 133.59 184.28 158.761 179.234C183.803 174.214 211.041 191.351 225.231 202.095C233.46 190.12 257.232 163.319 286.494 151.922C323.07 137.676 347.185 146.849 362.143 150.674C364.49 143.859 371.399 126.855 380.266 113.369C391.348 96.5107 412.586 76.9887 431.445 72.0408C450.304 67.0929 463.051 68.3987 477.319 75.5053C491.588 82.612 482.955 91.0771 473.871 91.9105C464.786 92.7439 456.011 88.8461 426.997 96.4583C403.786 102.548 393.29 117.702 390.943 124.518C396.469 119.968 414.207 110.354 440.957 108.296C474.394 105.724 466.974 124.721 462.622 125.863C458.269 127.005 420.789 125.988 409.564 130.483C398.339 134.978 384.593 141.685 377.173 160.682C411.489 202.83 398.338 229.531 390.156 245.628C381.975 261.724 390.679 259.441 399.669 281.883C408.658 304.325 395.673 313.932 389.18 318.736C382.688 323.539 372.39 313.84 385.066 308.965C395.207 305.064 394.238 294.675 392.486 289.968C392.407 293.605 390.584 301.627 383.925 304.614C375.601 308.348 360.952 299.791 376.529 294.154C392.106 288.517 380.287 273.018 376.482 258.516Z" fill="#D3D0D0"/>
<path d="M289.04 246.345C295.621 247.693 307.099 251.862 313.215 255.386C316.883 257.499 315.928 263.391 314.402 265.843C312.876 268.294 307.169 273.894 282.346 274.253C257.523 274.612 263.565 256.105 268.641 251.697C273.715 247.289 284.329 245.379 289.04 246.345Z" fill="#282828"/>
<path d="M361.73 208.813C355.253 219.742 354.982 230.582 357.248 239.217C358.003 242.096 361.295 242.772 365.666 241.624C370.037 240.477 373.168 236.579 374.733 234.63C376.662 232.227 381.878 225.063 385.851 211.714C390.817 195.028 380.187 190.125 375.816 191.272C371.445 192.419 368.206 197.883 361.73 208.813Z" fill="#282828"/>
<path d="M366.228 596.245C366.534 601.374 365.689 606.505 363.753 611.264C362.908 613.594 361.76 615.803 360.34 617.835C358.439 620.659 356.073 623.141 353.342 625.173C337.679 635.516 319.452 641.306 300.692 641.899C294.718 642.411 288.318 642.667 281.236 642.667C274.153 642.667 267.753 642.411 261.78 641.899C243.019 641.306 224.792 635.516 209.129 625.173C206.398 623.141 204.032 620.659 202.132 617.835C200.711 615.803 199.564 613.594 198.718 611.264C196.783 606.505 195.937 601.374 196.244 596.245C196.984 577.291 200.492 558.548 206.654 540.608C231.015 546.782 256.116 549.539 281.236 548.8C306.356 549.539 331.456 546.782 355.817 540.608C361.98 558.548 365.487 577.291 366.228 596.245Z" fill="#E91E63"/>
<path d="M355.817 540.608C347.938 542.853 339.911 544.541 331.796 545.66C336.929 562.065 339.898 579.071 340.628 596.245C340.934 601.374 340.089 606.505 338.153 611.264C337.308 613.594 336.16 615.803 334.74 617.835C332.839 620.659 330.473 623.141 327.742 625.173C312.079 635.516 293.852 641.306 275.092 641.899C272.958 642.078 270.688 642.189 268.436 642.308C272.489 642.522 276.687 642.667 281.236 642.667C288.318 642.667 294.718 642.411 300.692 641.899C319.452 641.306 337.679 635.516 353.342 625.173C356.073 623.141 358.439 620.659 360.34 617.835C361.76 615.803 362.908 613.594 363.753 611.264C365.689 606.505 366.534 601.374 366.228 596.245C365.487 577.291 361.98 558.548 355.817 540.608V540.608Z" fill="#AD1457"/>
<path d="M366.228 596.245C366.534 601.374 365.689 606.505 363.753 611.264C362.908 613.594 361.76 615.803 360.34 617.835C358.439 620.659 356.073 623.141 353.342 625.173C337.679 635.516 319.452 641.306 300.692 641.899C294.718 642.411 288.318 642.667 281.236 642.667C274.153 642.667 267.753 642.411 261.78 641.899C243.019 641.306 224.792 635.516 209.129 625.173C206.398 623.141 204.032 620.659 202.132 617.835C200.711 615.803 199.564 613.594 198.718 611.264C196.783 606.505 195.937 601.374 196.244 596.245C196.984 577.291 200.492 558.548 206.654 540.608C231.015 546.782 256.116 549.539 281.236 548.8C306.356 549.539 331.456 546.782 355.817 540.608C361.98 558.548 365.487 577.291 366.228 596.245Z" stroke="black" stroke-width="15"/>
<path d="M289.769 591.467H272.702C267.989 591.467 264.169 595.287 264.169 600C264.169 604.713 267.989 608.533 272.702 608.533H289.769C294.482 608.533 298.302 604.713 298.302 600C298.302 595.287 294.482 591.467 289.769 591.467Z" fill="black"/>
<path d="M196.244 596.245C195.937 601.374 196.783 606.505 198.718 611.264C173.289 626.624 160.233 619.712 153.406 609.131C146.45 597.401 146.19 582.872 152.724 570.901C160.075 555.458 170.773 541.845 184.041 531.051C191.141 535.188 198.74 538.399 206.654 540.608C200.491 558.548 196.984 577.291 196.244 596.245Z" fill="#9D27B0" stroke="black" stroke-width="15"/>
<path d="M409.065 609.131C402.238 619.712 389.182 626.624 363.753 611.264C365.689 606.505 366.534 601.374 366.228 596.245C365.487 577.291 361.98 558.548 355.817 540.608C363.731 538.399 371.331 535.188 378.43 531.051C391.698 541.845 402.396 555.458 409.748 570.901C416.281 582.872 416.022 597.401 409.065 609.131V609.131Z" fill="#9D27B0"/>
<path d="M409.748 570.901C402.396 555.458 391.698 541.845 378.43 531.051C373.062 534.209 367.379 536.8 361.475 538.782C370.736 548.178 378.396 559.028 384.148 570.901C390.681 582.872 390.422 597.401 383.465 609.131C381.448 612.376 378.712 615.114 375.469 617.135C393.347 624.158 403.382 617.946 409.065 609.131C416.022 597.401 416.281 582.872 409.748 570.901Z" fill="#6A1B9A"/>
<path d="M409.065 609.131C402.238 619.712 389.182 626.624 363.753 611.264C365.689 606.505 366.534 601.374 366.228 596.245C365.487 577.291 361.98 558.548 355.817 540.608C363.731 538.399 371.331 535.188 378.43 531.051C391.698 541.845 402.396 555.458 409.748 570.901C416.281 582.872 416.022 597.401 409.065 609.131V609.131Z" stroke="black" stroke-width="15"/>
<path d="M261.78 641.899C260.841 677.824 254.441 699.584 248.041 712.384C243.524 721.834 234.024 727.891 223.55 728C222.725 728.014 221.899 727.986 221.076 727.915C207.521 726.156 197.171 714.943 196.5 701.291C195.341 673.35 197.229 645.366 202.132 617.835C204.032 620.659 206.398 623.141 209.129 625.173C224.792 635.516 243.019 641.306 261.78 641.899V641.899Z" fill="#3F51B5" stroke="black" stroke-width="15"/>
<path d="M365.972 701.291C365.301 714.943 354.951 726.156 341.396 727.915C340.573 727.986 339.747 728.014 338.921 728C328.447 727.891 318.948 721.834 314.43 712.384C308.03 699.584 301.63 677.824 300.692 641.899C319.452 641.306 337.679 635.516 353.342 625.173C356.073 623.141 358.439 620.659 360.34 617.835C365.242 645.366 367.13 673.35 365.972 701.291V701.291Z" fill="#3F51B5"/>
<path d="M360.34 617.835C358.439 620.659 356.073 623.141 353.342 625.173C348.346 628.792 342.895 631.736 337.129 633.929C340.431 656.22 341.518 678.785 340.372 701.291C339.747 710.963 334.359 719.693 325.993 724.587C329.94 726.81 334.391 727.985 338.921 728C339.747 728.014 340.573 727.986 341.396 727.915C354.95 726.156 365.301 714.943 365.972 701.291C367.13 673.35 365.242 645.366 360.34 617.835Z" fill="#283593"/>
<path d="M365.972 701.291C365.301 714.943 354.951 726.156 341.396 727.915C340.573 727.986 339.747 728.014 338.921 728C328.447 727.891 318.948 721.834 314.43 712.384C308.03 699.584 301.63 677.824 300.692 641.899C319.452 641.306 337.679 635.516 353.342 625.173C356.073 623.141 358.439 620.659 360.34 617.835C365.242 645.366 367.13 673.35 365.972 701.291V701.291Z" stroke="black" stroke-width="15"/>
<path d="M409.236 446.4C409.236 481.557 409.236 512.619 378.431 531.051C371.331 535.188 363.732 538.399 355.817 540.608C331.456 546.782 306.356 549.539 281.236 548.8C256.116 549.539 231.015 546.782 206.655 540.608C198.74 538.399 191.141 535.188 184.041 531.051C153.236 512.619 153.236 481.557 153.236 446.4C153.236 399.125 193.257 359.36 247.615 347.584C258.664 345.208 269.934 344.007 281.236 344C287.252 343.994 293.264 344.336 299.241 345.024C361.364 352.021 409.236 394.688 409.236 446.4Z" fill="#FFE0B2"/>
<path d="M299.241 345.024C293.264 344.336 287.252 343.994 281.236 344C277.182 344 273.24 344.35 269.289 344.649C270.74 344.777 272.208 344.853 273.65 345.024C335.764 352.021 383.636 394.688 383.636 446.4C383.636 481.557 383.636 512.619 352.83 531.051C345.731 535.188 338.132 538.399 330.217 540.608C310.046 545.887 289.286 548.582 268.436 548.629C272.566 548.732 276.807 548.8 281.236 548.8C306.356 549.539 331.456 546.782 355.817 540.608C363.732 538.399 371.331 535.188 378.43 531.051C409.236 512.619 409.236 481.557 409.236 446.4C409.236 394.688 361.364 352.021 299.241 345.024Z" fill="#DFC49C"/>
<path d="M409.236 446.4C409.236 481.557 409.236 512.619 378.431 531.051C371.331 535.188 363.732 538.399 355.817 540.608C331.456 546.782 306.356 549.539 281.236 548.8C256.116 549.539 231.015 546.782 206.655 540.608C198.74 538.399 191.141 535.188 184.041 531.051C153.236 512.619 153.236 481.557 153.236 446.4C153.236 399.125 193.257 359.36 247.615 347.584C258.664 345.208 269.934 344.007 281.236 344C287.252 343.994 293.264 344.336 299.241 345.024C361.364 352.021 409.236 394.688 409.236 446.4Z" stroke="black" stroke-width="15"/>
<path d="M225.769 506.133C237.551 506.133 247.102 496.582 247.102 484.8C247.102 473.018 237.551 463.467 225.769 463.467C213.987 463.467 204.436 473.018 204.436 484.8C204.436 496.582 213.987 506.133 225.769 506.133Z" fill="#3F51B5"/>
<path d="M336.702 506.133C348.485 506.133 358.036 496.582 358.036 484.8C358.036 473.018 348.485 463.467 336.702 463.467C324.92 463.467 315.369 473.018 315.369 484.8C315.369 496.582 324.92 506.133 336.702 506.133Z" fill="#3F51B5"/>
<path d="M195.902 506.133C195.902 510.846 199.723 514.667 204.436 514.667H247.102C251.815 514.667 255.636 510.846 255.636 506.133C255.601 503.317 254.151 500.706 251.779 499.187C254.272 494.8 255.6 489.847 255.636 484.8C255.636 468.305 242.264 454.933 225.769 454.933C209.274 454.933 195.902 468.305 195.902 484.8C195.938 489.847 197.266 494.8 199.759 499.187C197.387 500.706 195.937 503.317 195.902 506.133ZM225.769 472C232.838 472 238.569 477.731 238.569 484.8C238.569 491.869 232.838 497.6 225.769 497.6C218.7 497.6 212.969 491.869 212.969 484.8C212.969 477.731 218.7 472 225.769 472Z" fill="black"/>
<path d="M306.836 506.133C306.836 510.846 310.656 514.667 315.369 514.667H358.036C362.749 514.667 366.569 510.846 366.569 506.133C366.534 503.317 365.085 500.706 362.712 499.187C365.206 494.8 366.534 489.847 366.569 484.8C366.569 468.305 353.198 454.933 336.703 454.933C320.208 454.933 306.836 468.305 306.836 484.8C306.871 489.847 308.199 494.8 310.693 499.187C308.32 500.706 306.871 503.317 306.836 506.133ZM336.703 472C343.772 472 349.503 477.731 349.503 484.8C349.503 491.869 343.772 497.6 336.703 497.6C329.633 497.6 323.903 491.869 323.903 484.8C323.903 477.731 329.633 472 336.703 472Z" fill="black"/>
<path d="M407.503 538.769C420.409 557.079 413.652 561.066 411.964 579.579C409.824 589.017 402.451 609.297 390.073 614.919C374.6 621.946 370.952 639.514 357.574 657.217C344.196 674.92 344.467 694.379 335.008 713.974C325.55 733.569 329.469 735.461 313.253 759.042C297.038 782.624 304.943 791.272 312.849 799.92C320.755 808.569 338.997 790.798 346.564 775.122C354.131 759.446 364.604 742.757 378.117 734.783C388.928 728.405 389.198 738.522 387.982 744.378L373.794 773.77C369.065 783.567 361.498 799.243 363.592 809.919C365.687 820.594 361.026 835.256 351.567 854.851C342.108 874.446 328.934 906.744 350.488 917.148C372.042 927.553 375.419 890.526 388.797 872.823C402.175 855.12 402.985 843.431 424.944 812.957C446.902 782.484 467.375 785.118 476.159 786.942C484.943 788.766 478.321 802.483 468.727 812.348C459.133 822.213 444.134 863.294 453.932 868.024C463.729 872.753 474.134 851.199 491.498 840.252C508.863 829.306 525.956 798.9 532.577 785.184C539.199 771.467 572.103 758.358 587.373 736.736C602.642 715.114 619.601 674.979 629.127 660.249C638.654 645.519 665.68 629.572 684.868 609.842C704.057 590.112 707.569 562.815 711.082 535.517L711.083 535.516C714.596 508.218 698.109 512.342 705.472 482.071C712.836 451.801 706.89 444.098 699.863 428.626C692.835 413.153 680.336 424.031 677.092 400.72C673.848 377.41 659.996 361.059 645.334 356.397C630.672 351.736 617.023 349.979 601.55 357.007C586.078 364.034 557.091 379.036 546.348 376.265C489.112 361.504 478.715 411.267 475.945 422.01C473.175 432.754 461.824 456.268 448.176 454.511C434.527 452.755 414.393 474.445 408.717 486.202C403.042 497.958 394.597 520.459 407.503 538.769Z" fill="#B7B4B4"/>
<path d="M468.921 546.673C464.192 556.471 469.124 561.268 473.246 577.754C472.436 589.443 465.293 595.66 461.964 606.133C457.302 620.795 470.005 624.511 476.964 635.118C483.924 645.726 485.951 651.537 501.627 659.104C517.303 666.671 509.603 666.137 540.681 668.292C564.06 669.913 570.236 635.802 580.004 626.872C588.653 618.966 602.208 620.917 607.031 610.925C614.598 595.249 598.044 594.507 603.719 582.75C613.178 563.155 607.164 550.588 599.326 546.804C591.488 543.021 584.596 537.278 592.231 526.467C599.866 515.656 599.595 496.196 583.919 488.629C568.243 481.062 558.581 486.062 549.933 493.968C540.848 502.273 541.284 501.874 536.487 506.806C531.69 511.739 521.893 507.009 514.122 508.091C506.352 509.172 503.515 515.051 499.731 522.888C495.948 530.726 494.934 527.821 489.123 529.848C483.312 531.875 473.651 536.876 468.921 546.673Z" fill="#282828"/>
<path d="M502.635 451.808C507.297 437.146 521.824 432.078 533.581 437.753C544.459 450.252 539.73 460.049 535.001 469.846L535 469.847C530.271 479.644 516.758 487.618 505.947 479.983C495.136 472.348 497.973 466.47 502.635 451.808Z" fill="white"/>
<path d="M599.661 430.994C605.268 414.372 617.836 408.358 629.593 414.033C648.242 425.452 642.499 432.344 637.837 447.006C633.175 461.668 615.675 462.885 607.837 459.102C599.999 455.318 594.053 447.616 599.661 430.994Z" fill="white"/>
<path d="M638.042 531.668C638.785 515.114 655.204 506.127 665.947 508.897C680.677 518.423 675.88 523.356 674.123 537.005C672.367 550.653 658.922 563.491 649.124 558.762C639.327 554.033 637.3 548.222 638.042 531.668Z" fill="white"/>
</g>
<defs>
<filter id="filter0_i_3_306" x="33" y="112" width="67" height="742" filterUnits="userSpaceOnUse" color-interpolation-filters="sRGB">
<feFlood flood-opacity="0" result="BackgroundImageFix"/>
<feBlend mode="normal" in="SourceGraphic" in2="BackgroundImageFix" result="shape"/>
<feColorMatrix in="SourceAlpha" type="matrix" values="0 0 0 0 0 0 0 0 0 0 0 0 0 0 0 0 0 0 127 0" result="hardAlpha"/>
<feOffset dy="4"/>
<feGaussianBlur stdDeviation="2"/>
<feComposite in2="hardAlpha" operator="arithmetic" k2="-1" k3="1"/>
<feColorMatrix type="matrix" values="0 0 0 0 0 0 0 0 0 0 0 0 0 0 0 0 0 0 0.25 0"/>
<feBlend mode="normal" in2="shape" result="effect1_innerShadow_3_306"/>
</filter>
<filter id="filter1_i_3_306" x="33" y="79" width="432" height="48" filterUnits="userSpaceOnUse" color-interpolation-filters="sRGB">
<feFlood flood-opacity="0" result="BackgroundImageFix"/>
<feBlend mode="normal" in="SourceGraphic" in2="BackgroundImageFix" result="shape"/>
<feColorMatrix in="SourceAlpha" type="matrix" values="0 0 0 0 0 0 0 0 0 0 0 0 0 0 0 0 0 0 127 0" result="hardAlpha"/>
<feOffset dy="4"/>
<feGaussianBlur stdDeviation="2"/>
<feComposite in2="hardAlpha" operator="arithmetic" k2="-1" k3="1"/>
<feColorMatrix type="matrix" values="0 0 0 0 0 0 0 0 0 0 0 0 0 0 0 0 0 0 0.25 0"/>
<feBlend mode="normal" in2="shape" result="effect1_innerShadow_3_306"/>
</filter>
<filter id="filter2_d_3_306" x="414.78" y="209.633" width="126.018" height="110.551" filterUnits="userSpaceOnUse" color-interpolation-filters="sRGB">
<feFlood flood-opacity="0" result="BackgroundImageFix"/>
<feColorMatrix in="SourceAlpha" type="matrix" values="0 0 0 0 0 0 0 0 0 0 0 0 0 0 0 0 0 0 127 0" result="hardAlpha"/>
<feOffset dy="4"/>
<feGaussianBlur stdDeviation="2"/>
<feComposite in2="hardAlpha" operator="out"/>
<feColorMatrix type="matrix" values="0 0 0 0 0 0 0 0 0 0 0 0 0 0 0 0 0 0 0.25 0"/>
<feBlend mode="normal" in2="BackgroundImageFix" result="effect1_dropShadow_3_306"/>
<feBlend mode="normal" in="SourceGraphic" in2="effect1_dropShadow_3_306" result="shape"/>
</filter>
<clipPath id="clip0_3_306">
<rect width="807" height="850" fill="white"/>
</clipPath>
</defs>
</svg>
